<?xml version="1.0" standalone="no"?>
<!DOCTYPE svg PUBLIC "-//W3C//DTD SVG 20010904//EN"
 "http://www.w3.org/TR/2001/REC-SVG-20010904/DTD/svg10.dtd">
<svg version="1.0" xmlns="http://www.w3.org/2000/svg"
 width="512.000000pt" height="512.000000pt" viewBox="0 0 512.000000 512.000000"
 preserveAspectRatio="xMidYMid meet">

<g transform="translate(0.000000,512.000000) scale(0.100000,-0.100000)"
fill="#000000" stroke="none">
<path d="M2366 4649 c-306 -29 -644 -141 -896 -296 -209 -130 -454 -351 -592
-536 -275 -370 -418 -802 -418 -1264 0 -571 233 -1118 646 -1512 325 -311 722
-503 1171 -567 147 -20 421 -20 571 1 695 100 1295 535 1597 1160 135 278 199
533 212 840 43 1069 -731 2001 -1795 2160 -132 20 -369 26 -496 14z m513 -233
c509 -96 937 -375 1220 -796 458 -683 412 -1590 -114 -2220 -549 -658 -1474
-856 -2240 -480 -449 221 -788 607 -944 1076 -207 621 -79 1288 342 1791 287
342 687 564 1147 637 124 20 467 15 589 -8z"/>
<path d="M1423 2892 c-232 -83 -299 -364 -127 -535 92 -92 239 -119 354 -66
66 31 130 93 162 157 34 69 33 206 -1 276 -70 143 -246 219 -388 168z"/>
<path d="M3527 2880 c-102 -26 -192 -104 -227 -198 -29 -77 -25 -186 9 -256
97 -197 362 -244 514 -90 22 22 51 62 65 89 23 43 27 62 27 140 0 79 -4 97
-28 142 -36 69 -88 120 -152 149 -59 27 -152 38 -208 24z"/>
<path d="M2476 2864 c-107 -33 -184 -109 -216 -212 -25 -81 -25 -114 1 -198
17 -56 31 -77 78 -125 48 -47 69 -61 125 -78 85 -26 117 -26 199 -1 114 35
193 126 219 254 31 146 -69 310 -219 356 -76 23 -120 24 -187 4z"/>
</g>
</svg>
