<?xml version="1.0" standalone="no"?>
<!DOCTYPE svg PUBLIC "-//W3C//DTD SVG 20010904//EN"
 "http://www.w3.org/TR/2001/REC-SVG-20010904/DTD/svg10.dtd">
<svg version="1.0" xmlns="http://www.w3.org/2000/svg"
 width="400.000000pt" height="400.000000pt" viewBox="0 0 400.000000 400.000000"
 preserveAspectRatio="xMidYMid meet">

<g transform="translate(0.000000,400.000000) scale(0.100000,-0.100000)"
fill="#000000" stroke="none">
<path d="M1800 3873 c-19 -2 -46 -6 -60 -9 -22 -5 -23 -7 -7 -15 10 -6 14 -15
11 -21 -5 -8 -1 -9 11 -4 10 3 88 9 174 12 86 3 164 7 174 9 9 2 15 -1 11 -6
-3 -5 21 -10 53 -11 32 -1 67 -2 78 -2 11 -1 25 -4 31 -8 7 -5 26 -6 43 -4 17
2 31 -1 31 -5 0 -5 5 -9 10 -9 6 0 10 7 10 15 0 8 -9 15 -20 15 -11 0 -20 5
-20 12 0 6 -6 3 -14 -7 -13 -19 -15 -18 -49 8 -27 20 -43 25 -73 23 -22 -2
-45 1 -52 7 -9 7 -24 7 -50 -1 -36 -11 -275 -22 -265 -12 2 3 62 8 131 11
l127 5 -125 0 c-69 1 -141 -1 -160 -3z m430 -23 c-13 -8 -12 -10 4 -10 11 0
17 -3 13 -6 -3 -4 -13 -4 -22 0 -18 6 -11 26 8 26 7 0 6 -4 -3 -10z"/>
<path d="M1661 3851 c-8 -5 -20 -7 -28 -4 -7 3 -13 0 -13 -7 0 -7 -8 -10 -20
-7 -11 3 -18 1 -14 -4 3 -5 0 -9 -5 -9 -6 0 -11 -7 -11 -15 0 -18 26 -20 36
-3 4 7 3 8 -4 4 -7 -4 -12 -2 -12 3 0 13 13 14 26 2 9 -9 101 3 112 14 12 12
-7 15 -32 6 -20 -8 -26 -7 -26 3 0 10 7 12 22 8 14 -3 19 -2 14 6 -9 14 -26
15 -45 3z m-4 -27 c-3 -3 -12 -4 -19 -1 -8 3 -5 6 6 6 11 1 17 -2 13 -5z"/>
<path d="M2280 3850 c20 -13 33 -13 25 0 -3 6 -14 10 -23 10 -15 0 -15 -2 -2
-10z"/>
<path d="M2383 3824 c-8 -21 6 -33 43 -37 16 -2 36 -7 43 -11 12 -8 30 8 31
27 0 17 -32 18 -50 2 -13 -12 -20 -14 -20 -5 0 7 -7 10 -15 7 -18 -7 -30 9
-14 19 8 5 9 3 4 -6 -5 -9 -4 -11 4 -6 12 8 6 26 -10 26 -5 0 -12 -7 -16 -16z"/>
<path d="M2430 3819 c0 -5 5 -7 10 -4 6 3 10 8 10 11 0 2 -4 4 -10 4 -5 0 -10
-5 -10 -11z"/>
<path d="M1495 3810 c-4 -6 -11 -7 -17 -4 -6 4 -20 -4 -30 -17 -17 -20 -19
-21 -13 -4 5 15 3 17 -5 8 -9 -8 -9 -16 -1 -30 6 -10 11 -13 11 -5 0 7 4 11 9
8 12 -8 111 23 111 34 0 14 -18 12 -22 -2 -3 -8 -9 -8 -24 1 -16 11 -16 12 -1
7 11 -3 15 -2 12 4 -8 13 -22 13 -30 0z"/>
<path d="M2506 3793 c-4 -9 -3 -20 2 -25 6 -6 12 -1 15 11 6 25 -8 38 -17 14z"/>
<path d="M2537 3793 c-21 -21 8 -48 62 -56 9 -1 22 -6 29 -11 8 -5 11 -3 10 5
-2 7 6 14 17 16 11 2 16 1 10 -4 -5 -4 -11 -15 -13 -23 -2 -8 0 -12 4 -8 4 4
13 3 21 -3 9 -8 13 -8 13 -1 0 6 13 9 30 7 33 -4 41 10 10 18 -11 3 -20 0 -21
-6 0 -7 -4 -3 -9 8 -7 17 -9 17 -9 3 -1 -10 -5 -18 -11 -18 -5 0 -7 7 -4 15 8
19 -37 38 -48 21 -6 -8 -8 -7 -8 2 0 6 -6 12 -14 12 -8 0 -16 4 -18 9 -4 12
-43 23 -51 14z m46 -27 c4 -10 0 -12 -15 -8 -15 4 -17 7 -6 13 17 11 15 11 21
-5z"/>
<path d="M1385 3780 c-3 -5 -15 -10 -26 -10 -10 0 -19 -5 -19 -11 0 -5 5 -7
10 -4 6 3 10 1 10 -4 0 -15 -13 -14 -29 2 -11 10 -14 9 -18 -1 -3 -6 -9 -9
-15 -6 -6 4 -8 -2 -4 -17 6 -20 5 -21 -4 -6 -12 19 -30 23 -30 6 0 -5 5 -7 12
-3 6 4 8 3 5 -3 -8 -12 17 -25 28 -15 4 4 10 7 13 8 25 3 61 17 58 23 -2 3 3
13 12 21 14 13 15 12 9 -3 -3 -9 -2 -17 3 -17 14 0 21 17 14 34 -7 18 -20 21
-29 6z"/>
<path d="M1216 3713 c-4 -5 -11 -8 -14 -8 -20 -2 -52 -18 -52 -26 0 -6 -4 -8
-8 -5 -4 2 -27 -9 -51 -25 -24 -16 -48 -29 -53 -29 -5 0 -4 -9 2 -20 13 -25
30 -17 31 13 1 17 2 18 6 5 4 -16 9 -15 53 7 27 14 51 29 55 35 4 6 11 8 16 5
5 -4 12 1 15 9 3 9 10 13 15 10 5 -3 18 -2 30 1 16 5 18 10 8 21 -12 15 -41
19 -53 7z m2 -23 c-8 -12 -15 -15 -19 -9 -4 7 -15 2 -29 -13 -22 -23 -22 -23
-11 0 6 12 16 23 21 23 6 1 14 2 19 3 5 0 13 4 17 9 13 13 14 7 2 -13z m-103
-62 c-9 -6 -19 -7 -22 -4 -4 3 -1 6 6 6 7 0 9 4 6 10 -4 6 1 7 11 3 15 -6 15
-7 -1 -15z"/>
<path d="M2706 3701 c-3 -4 8 -12 25 -18 22 -9 29 -8 29 1 0 7 7 13 15 13 10
0 12 -4 5 -12 -7 -9 -3 -17 15 -29 14 -9 25 -13 25 -9 0 5 4 3 8 -2 12 -18 82
-55 83 -45 5 39 3 45 -21 48 -19 2 -22 1 -10 -7 8 -5 17 -8 20 -6 4 2 7 -2 7
-10 0 -8 -4 -15 -9 -15 -4 0 -8 4 -8 10 0 5 -11 12 -25 16 -14 3 -25 13 -25
23 0 13 2 13 9 2 5 -8 11 -9 15 -3 3 6 -2 13 -11 16 -28 9 -38 6 -35 -11 2 -9
-1 -12 -8 -8 -7 4 -10 16 -7 26 4 14 -1 20 -16 23 -35 6 -77 4 -81 -3z"/>
<path d="M2926 3615 c-6 -17 14 -45 33 -45 6 0 11 -4 11 -10 0 -5 3 -9 8 -9
18 3 33 -2 28 -10 -3 -4 6 -6 19 -3 27 5 83 -32 65 -43 -5 -3 -10 -1 -10 4 0
6 -5 11 -11 11 -19 0 -5 -21 26 -38 16 -9 38 -28 50 -41 19 -21 24 -22 46 -11
19 10 22 10 12 0 -13 -14 0 -50 18 -50 6 0 8 4 5 8 -3 5 1 9 9 9 18 0 20 -14
3 -20 -9 -3 -2 -14 17 -30 20 -16 34 -22 41 -16 7 6 16 4 24 -6 7 -8 17 -15
23 -15 6 0 -6 18 -28 40 -21 22 -41 37 -43 35 -3 -3 -11 4 -19 14 -8 13 -21
17 -35 14 -18 -4 -20 -2 -9 5 12 9 13 13 1 27 -7 9 -23 15 -34 14 -35 -2 -39
0 -26 16 10 12 9 16 -6 22 -11 3 -21 9 -24 13 -13 15 -93 73 -87 63 5 -7 4
-13 -2 -13 -6 0 -11 6 -11 14 0 12 -31 33 -37 24 -1 -2 -9 6 -17 17 -9 11 -16
16 -16 10 0 -5 -4 -4 -9 3 -7 11 -9 10 -15 -3z m31 -22 c0 -9 -4 -10 -14 -2
-7 6 -13 12 -13 14 0 1 6 2 13 2 8 0 14 -6 14 -14z m48 -23 c8 -13 -5 -13 -25
0 -13 8 -13 10 2 10 9 0 20 -4 23 -10z m134 -97 c4 -3 -28 2 -47 6 -2 1 0 6 3
11 5 8 12 7 23 -2 10 -7 19 -14 21 -15z m134 -118 c-3 -9 -2 -15 3 -14 18 3
25 -1 19 -12 -5 -7 -14 -4 -26 7 -15 13 -17 19 -7 26 18 11 18 10 11 -7z"/>
<path d="M993 3591 c-9 -11 -20 -18 -25 -15 -4 3 -8 0 -8 -5 0 -6 -7 -11 -15
-11 -7 0 -18 -7 -23 -16 -5 -9 -11 -14 -14 -12 -3 1 -17 -6 -31 -16 -20 -16
-24 -24 -16 -38 7 -12 6 -18 -1 -18 -6 0 -13 7 -16 15 -5 12 -9 13 -21 4 -7
-7 -12 -18 -9 -25 3 -8 0 -11 -10 -7 -13 5 -19 -8 -15 -30 1 -5 -3 -6 -9 -2
-6 3 -7 12 -4 18 4 7 -10 -4 -32 -24 -21 -21 -54 -51 -73 -68 -19 -17 -29 -31
-22 -31 15 0 14 -27 -1 -36 -8 -5 -9 -2 -5 9 4 12 1 17 -10 17 -9 0 -14 -3
-10 -6 3 -4 -1 -13 -9 -21 -8 -8 -12 -18 -10 -22 3 -4 -9 -13 -25 -20 -20 -9
-28 -18 -25 -28 3 -8 2 -12 -2 -10 -4 3 -16 -5 -27 -16 -17 -17 -17 -19 -3
-14 10 3 20 1 24 -6 4 -7 4 -9 -1 -5 -4 4 -14 3 -22 -3 -7 -6 -13 -8 -13 -5 0
10 -31 -21 -31 -31 0 -4 -7 -12 -15 -16 -12 -7 -12 -10 1 -23 8 -9 12 -20 9
-25 -3 -6 -11 -3 -18 6 -11 16 -14 15 -29 -9 -10 -14 -13 -26 -7 -26 6 0 13 7
16 15 4 8 10 12 16 9 5 -3 1 -12 -9 -20 -16 -12 -16 -13 -2 -14 9 0 24 11 33
25 9 14 14 25 12 25 -2 0 4 10 14 23 11 12 38 45 60 72 23 28 51 61 63 74 12
14 16 21 10 17 -8 -4 -13 -2 -13 7 0 10 7 13 18 10 11 -3 29 8 50 31 18 20 28
36 22 36 -18 0 -11 29 12 44 35 25 42 19 12 -9 -18 -16 -22 -25 -12 -25 8 0
24 11 35 23 18 22 19 25 4 35 -13 9 -9 10 18 5 30 -5 33 -4 28 11 -4 10 -3 15
3 11 19 -12 31 5 19 28 -9 21 -9 21 5 3 14 -17 16 -17 56 15 23 19 37 35 31
37 -6 2 -18 -4 -27 -13 -9 -9 -19 -13 -22 -10 -11 11 33 35 56 30 15 -4 22 -1
22 10 0 10 -5 13 -12 9 -7 -4 -8 -3 -4 5 6 9 11 9 22 0 12 -10 18 -9 32 5 16
16 16 17 -3 10 -17 -6 -17 -3 5 18 14 14 29 23 34 20 5 -3 6 0 2 6 -10 16 -13
15 -33 -7z m-303 -269 c-6 -2 -8 -8 -5 -12 3 -5 1 -11 -4 -14 -5 -3 -11 1 -15
9 -3 8 -1 15 4 15 6 0 9 3 9 8 -3 19 2 25 11 12 6 -10 6 -16 0 -18z m-109
-115 c-10 -9 -11 -8 -5 6 3 10 9 15 12 12 3 -3 0 -11 -7 -18z m-57 -79 c-14
-25 -37 -48 -48 -48 -6 1 0 10 13 20 13 11 19 20 15 20 -5 0 -2 5 6 10 20 13
23 12 14 -2z"/>
<path d="M1020 3570 c-9 -6 -10 -10 -3 -10 6 0 15 5 18 10 8 12 4 12 -15 0z"/>
<path d="M3030 3520 c0 -5 7 -10 15 -10 8 0 15 5 15 10 0 6 -7 10 -15 10 -8 0
-15 -4 -15 -10z"/>
<path d="M3295 3300 c-4 -6 2 -10 11 -10 10 0 15 -3 12 -6 -3 -3 10 -23 31
-44 54 -57 99 -110 93 -110 -2 0 1 -7 8 -15 9 -11 16 -12 25 -5 9 7 15 7 19 1
4 -5 0 -14 -9 -18 -12 -7 -10 -15 17 -43 17 -19 31 -37 31 -40 -1 -3 0 -7 2
-8 2 -2 2 8 1 23 -4 29 14 20 18 -10 1 -10 13 -22 25 -27 14 -5 20 -4 16 2 -3
6 -14 10 -23 10 -15 0 -15 2 -2 10 10 6 11 10 3 10 -7 0 -13 7 -13 15 0 8 -4
15 -10 15 -5 0 -10 5 -10 10 0 15 -80 120 -92 120 -5 0 -7 4 -4 8 3 5 -16 29
-42 53 -51 49 -98 74 -107 59z m68 -38 c-2 -6 6 -13 16 -17 10 -3 28 -16 40
-29 20 -22 21 -24 4 -37 -9 -8 -14 -9 -10 -3 4 7 0 15 -9 18 -9 4 -14 9 -11
13 4 3 -10 21 -31 39 -28 25 -32 32 -17 30 11 -2 19 -8 18 -14z m117 -135 c0
-4 -11 0 -24 10 -13 10 -22 21 -20 25 5 8 44 -22 44 -35z m22 -49 c-7 -7 -12
-8 -12 -2 0 6 3 14 7 17 3 4 9 5 12 2 2 -3 -1 -11 -7 -17z m20 -30 c-7 -7 -10
-5 -7 8 5 29 6 30 12 16 3 -8 1 -18 -5 -24z"/>
<path d="M3400 3206 c0 -2 7 -7 16 -10 8 -3 12 -2 9 4 -6 10 -25 14 -25 6z"/>
<path d="M1865 3211 c-6 -11 9 -23 19 -14 9 9 7 23 -3 23 -6 0 -12 -4 -16 -9z"/>
<path d="M1876 3166 c-86 -19 -109 -64 -66 -133 41 -68 114 -83 153 -31 19 25
19 31 7 68 -12 36 -11 42 5 60 9 10 15 26 12 35 -7 18 -31 18 -111 1z"/>
<path d="M380 2973 c-12 -20 -22 -45 -23 -54 -1 -10 -4 -16 -8 -13 -7 4 -34
-46 -75 -141 -10 -22 -20 -43 -22 -47 -2 -4 5 -11 16 -17 16 -8 21 -6 30 14
10 21 9 25 -4 25 -8 0 -13 -4 -9 -9 3 -5 1 -12 -4 -15 -5 -4 -8 0 -7 6 3 23
16 37 30 32 8 -3 16 3 19 15 3 12 -1 22 -9 25 -8 3 -14 11 -14 17 0 8 4 8 15
-1 17 -14 25 -10 29 13 1 8 8 22 15 31 7 8 9 21 5 27 -4 7 -3 9 3 6 5 -4 16 6
24 21 7 15 24 41 37 58 20 28 21 32 6 38 -26 10 -31 7 -54 -31z m50 18 c0 -4
-10 -19 -23 -33 -13 -14 -21 -30 -19 -36 2 -7 -1 -12 -7 -12 -15 0 -4 43 16
58 9 6 13 12 9 12 -4 0 -4 5 -1 10 8 12 25 13 25 1z m-88 -133 c-7 -7 -12 -8
-12 -2 0 14 12 26 19 19 2 -3 -1 -11 -7 -17z m-37 -78 c3 -5 1 -10 -4 -10 -6
0 -11 5 -11 10 0 6 2 10 4 10 3 0 8 -4 11 -10z"/>
<path d="M3550 2977 c8 -6 16 -19 18 -27 2 -8 7 -17 11 -20 3 -3 15 -24 25
-47 11 -24 23 -43 28 -43 11 0 10 17 -2 25 -6 4 -8 11 -5 16 4 5 2 9 -4 9 -6
0 -19 20 -30 44 -11 24 -28 46 -38 50 -16 5 -16 4 -3 -7z"/>
<path d="M3590 2958 c0 -6 11 -26 26 -45 14 -18 22 -33 18 -33 -3 0 -1 -7 6
-15 10 -12 10 -18 0 -30 -15 -18 1 -20 18 -3 8 8 12 8 12 1 0 -6 -7 -13 -15
-17 -13 -5 -13 -10 2 -41 10 -21 24 -35 35 -35 11 0 18 -7 18 -17 0 -15 -2
-16 -10 -3 -19 30 -21 1 -2 -37 10 -21 25 -59 33 -85 7 -27 17 -48 22 -48 4 0
6 -4 3 -9 -3 -5 1 -25 9 -44 8 -19 11 -38 7 -43 -4 -5 1 -2 11 5 19 15 24 2 6
-16 -7 -7 -9 -22 -4 -40 10 -36 13 -49 20 -103 9 -77 14 -90 30 -84 8 4 15 1
15 -5 0 -6 -6 -11 -12 -11 -10 0 -13 -49 -14 -208 -1 -114 -5 -220 -8 -237 -6
-26 -5 -27 4 -7 8 20 30 23 30 5 0 -4 -3 -3 -7 0 -11 12 -35 -45 -47 -113 -2
-8 -7 -28 -11 -43 -5 -18 -3 -33 4 -40 18 -18 13 -31 -6 -16 -11 9 -14 10 -10
2 5 -7 1 -26 -8 -43 -9 -17 -13 -35 -10 -39 3 -5 0 -11 -6 -13 -8 -3 -8 -10 2
-26 16 -25 31 -30 23 -7 -4 8 -2 15 4 15 5 0 12 11 14 25 3 14 1 25 -3 25 -5
0 -9 -6 -9 -14 0 -7 -8 -20 -17 -27 -16 -12 -17 -12 -6 2 7 9 10 18 7 22 -3 3
6 13 21 23 14 9 24 23 21 30 -3 7 0 16 6 20 7 4 5 10 -6 16 -11 6 -15 18 -12
35 9 48 22 35 17 -17 -1 -11 1 -10 9 3 6 9 8 26 5 37 -4 11 -2 20 4 20 16 0
13 21 -6 44 -17 20 -17 20 0 7 9 -7 18 -10 19 -5 0 5 3 20 4 34 2 14 8 52 13
85 12 78 12 333 0 410 -6 33 -10 72 -10 87 0 15 -5 30 -11 34 -8 5 -9 0 -5
-16 4 -17 3 -20 -6 -11 -9 9 -9 16 1 31 15 25 16 54 1 44 -8 -4 -9 0 -4 15 3
11 2 29 -4 38 -9 16 -11 16 -20 -7 -10 -25 -10 -25 -10 -2 -1 12 6 25 14 28
11 5 13 10 5 19 -5 6 -7 15 -3 19 4 4 -6 17 -22 30 -19 15 -24 25 -17 30 7 4
12 1 12 -8 0 -9 4 -16 9 -16 4 0 6 11 3 25 -3 19 -7 23 -17 15 -9 -8 -15 -8
-20 0 -3 5 -2 10 3 10 6 0 13 7 16 16 5 12 2 15 -10 10 -14 -5 -15 -4 -5 8 13
16 1 58 -27 90 -11 13 -12 17 -3 11 11 -6 10 -2 -2 16 -9 13 -17 32 -17 42 0
13 -5 17 -16 13 -25 -10 -34 2 -24 30 8 21 4 37 -21 85 -18 32 -36 59 -41 59
-5 0 -6 5 -3 10 3 6 1 10 -4 10 -6 0 -11 -5 -11 -12z m154 -328 c-6 -6 -10 -3
-10 10 0 13 4 16 10 10 7 -7 7 -13 0 -20z m76 -234 c0 -3 -4 -8 -10 -11 -5 -3
-10 -1 -10 4 0 6 5 11 10 11 6 0 10 -2 10 -4z m10 -46 c0 -5 -7 -7 -15 -4 -8
4 -12 10 -9 15 6 11 24 2 24 -11z m9 -94 c9 -10 8 -15 -2 -19 -8 -3 -13 3 -14
14 -2 23 1 24 16 5z m18 -278 c-2 -13 -4 -3 -4 22 0 25 2 35 4 23 2 -13 2 -33
0 -45z m-7 -188 c0 -5 -5 -10 -11 -10 -5 0 -7 5 -4 10 3 6 8 10 11 10 2 0 4
-4 4 -10z m-20 -144 c0 -11 -19 -15 -25 -6 -3 5 1 10 9 10 9 0 16 -2 16 -4z"/>
<path d="M1845 2816 c-18 -13 -19 -25 -16 -132 3 -119 14 -167 44 -193 13 -10
17 -31 17 -92 0 -135 43 -359 69 -359 17 0 18 26 5 90 -20 95 -29 376 -15 485
9 69 16 94 32 107 30 25 20 46 -36 79 -57 32 -73 35 -100 15z"/>
<path d="M3684 2802 c3 -5 0 -13 -6 -15 -9 -4 -10 -6 -1 -6 17 -1 25 16 12 25
-7 4 -9 3 -5 -4z"/>
<path d="M2712 2677 c-98 -153 -131 -270 -116 -414 3 -35 2 -63 -3 -63 -11 0
-86 308 -93 380 -8 86 -29 79 -83 -27 -24 -48 -52 -109 -62 -135 -10 -26 -23
-52 -30 -58 -18 -15 -35 68 -35 173 0 93 -18 135 -69 162 -40 20 -57 19 -81
-5 -26 -26 -25 -60 1 -93 31 -40 46 -100 59 -232 13 -142 38 -261 56 -276 18
-15 49 -3 62 24 6 12 22 66 36 119 14 54 34 117 44 142 11 24 23 58 27 75 8
36 24 49 36 30 12 -21 56 -166 69 -229 6 -30 19 -80 29 -110 15 -46 22 -55 42
-55 22 0 25 5 34 75 6 41 15 81 19 89 5 8 19 82 31 166 17 121 28 165 53 217
18 35 32 72 32 81 0 36 -20 24 -58 -36z"/>
<path d="M1657 2678 c-47 -72 -87 -149 -87 -169 0 -9 -6 -32 -14 -51 -16 -37
-22 -174 -11 -225 5 -21 3 -33 -3 -33 -6 0 -15 17 -20 38 -5 20 -24 96 -42
167 -18 72 -35 154 -37 183 -4 42 -8 52 -21 50 -17 -3 -81 -118 -115 -208 -43
-115 -58 -102 -65 57 -5 133 -22 182 -72 208 -38 20 -52 19 -84 -6 -31 -25
-34 -59 -5 -85 28 -25 40 -56 49 -134 26 -203 32 -242 46 -308 16 -77 29 -91
64 -72 25 14 35 37 66 160 13 52 32 115 43 140 10 25 24 58 30 74 10 25 14 27
25 15 16 -17 36 -81 65 -204 12 -49 26 -101 31 -115 4 -14 11 -37 14 -52 4
-19 13 -28 26 -28 26 0 36 23 45 95 4 33 14 72 21 87 8 15 14 42 14 60 0 82
40 268 70 327 29 56 32 81 10 81 -5 0 -24 -24 -43 -52z"/>
<path d="M251 2688 c16 -13 15 -38 -2 -38 -6 0 -8 4 -4 9 3 5 0 13 -7 17 -7 4
-10 4 -6 -1 4 -4 3 -14 -3 -21 -7 -9 -7 -19 2 -36 12 -22 11 -22 -6 -8 -17 14
-18 13 -12 -2 3 -9 1 -19 -6 -22 -7 -2 -3 -5 8 -6 18 -1 18 -2 -5 -15 -22 -13
-23 -14 -5 -15 18 -1 18 -2 -2 -10 -27 -11 -29 -25 -5 -40 16 -10 16 -10 -2
-8 -10 2 -21 -3 -23 -10 -3 -8 2 -10 14 -7 12 4 11 2 -4 -6 -23 -12 -36 -62
-19 -79 8 -8 6 -14 -6 -21 -10 -6 -18 -20 -18 -32 0 -16 3 -18 9 -8 6 9 11 10
15 2 4 -6 2 -11 -3 -11 -6 0 -11 -10 -12 -22 0 -22 -1 -22 -8 -3 -6 16 -9 10
-13 -25 -3 -26 0 -48 6 -52 7 -5 7 -8 -1 -8 -7 0 -13 -8 -13 -17 0 -16 2 -16
11 -3 8 11 9 8 4 -15 -4 -16 -11 -31 -16 -33 -16 -6 -10 -263 6 -292 17 -30
21 -65 5 -40 -8 13 -10 12 -10 -2 0 -10 6 -18 13 -18 8 0 8 -3 1 -8 -6 -4 -9
-26 -6 -52 4 -35 7 -41 13 -25 7 19 8 19 8 -2 1 -13 6 -23 12 -23 5 0 7 -5 3
-11 -4 -8 -9 -7 -15 2 -6 10 -9 8 -9 -8 0 -12 8 -26 18 -32 12 -7 14 -13 6
-21 -12 -12 -7 -57 7 -65 4 -3 6 -12 2 -20 -3 -11 2 -15 18 -15 20 0 21 -2 9
-11 -13 -9 -13 -10 0 -6 8 2 15 10 15 18 0 8 -7 13 -15 11 -8 -2 -12 0 -8 4 4
4 2 14 -5 23 -11 14 -10 14 5 2 17 -12 17 -11 12 20 -4 19 -11 39 -15 45 -5 6
-6 13 -4 16 3 3 1 25 -5 49 -13 55 -21 119 -21 184 -1 47 -1 48 -8 15 -8 -36
-4 115 5 245 3 39 6 88 8 110 1 22 5 46 9 52 4 6 9 28 11 49 2 22 7 47 11 56
4 9 4 21 1 27 -4 5 -2 12 3 15 8 5 20 49 27 96 1 8 14 44 28 79 14 36 26 66
26 68 0 1 -10 7 -22 13 -20 9 -21 9 -7 -2z m-37 -166 c3 -5 -1 -9 -9 -9 -8 0
-12 4 -9 9 3 4 7 8 9 8 2 0 6 -4 9 -8z m-22 -81 c-7 -4 -14 -17 -15 -29 0 -11
-4 -19 -8 -16 -4 2 -5 14 -1 27 5 23 23 40 31 31 3 -3 0 -9 -7 -13z m-51 -334
c-6 -6 -12 -22 -12 -36 -1 -18 -3 -20 -6 -8 -2 9 1 34 8 55 9 26 14 32 17 18
2 -10 -1 -23 -7 -29z m-1 -113 c0 -8 -4 -14 -10 -14 -5 0 -10 9 -10 21 0 11 5
17 10 14 6 -3 10 -13 10 -21z m-13 -91 c-3 -10 -5 -2 -5 17 0 19 2 27 5 18 2
-10 2 -26 0 -35z m53 -253 c0 -5 -5 -10 -11 -10 -5 0 -7 5 -4 10 3 6 8 10 11
10 2 0 4 -4 4 -10z m-3 -47 c-4 -3 -2 -12 4 -20 7 -8 8 -13 1 -13 -12 0 -23
26 -15 34 4 3 9 6 11 6 3 0 2 -3 -1 -7z"/>
<path d="M1590 2660 c0 -5 5 -10 11 -10 5 0 7 5 4 10 -3 6 -8 10 -11 10 -2 0
-4 -4 -4 -10z"/>
<path d="M2900 1951 c0 -11 5 -23 10 -26 6 -3 9 -25 8 -48 l-1 -42 -7 45 c-4
25 -8 39 -8 31 -2 -16 -17 -6 -17 12 0 5 -5 12 -11 14 -14 5 -18 -93 -4 -102
6 -4 7 1 4 12 -5 15 -4 16 5 3 6 -8 11 -12 11 -8 0 4 12 -4 26 -17 20 -19 24
-28 16 -38 -9 -10 2 -13 54 -15 l64 -3 0 31 0 31 -62 -2 -61 -3 2 72 c2 60 0
72 -13 72 -9 0 -16 -8 -16 -19z m130 -151 c0 -5 -11 -10 -25 -10 -14 0 -25 5
-25 10 0 6 11 10 25 10 14 0 25 -4 25 -10z"/>
<path d="M2868 1953 c7 -3 16 -2 19 1 4 3 -2 6 -13 5 -11 0 -14 -3 -6 -6z"/>
<path d="M890 1834 c0 -5 31 -17 70 -28 l25 -7 -24 14 -24 14 31 -1 c16 0 27
-5 24 -10 -3 -5 2 -6 12 -3 10 4 25 7 33 7 9 0 13 3 10 6 -8 8 -157 16 -157 8z"/>
<path d="M1500 1828 c0 -4 -6 -5 -14 -2 -16 6 -86 -52 -86 -71 0 -7 6 -16 13
-19 6 -3 1 -3 -13 0 -24 5 -25 5 -5 -11 19 -16 19 -16 1 -13 -14 2 -19 -3 -21
-20 -1 -13 2 -25 7 -28 7 -5 10 3 7 22 0 4 4 10 10 13 6 4 21 21 34 38 12 16
25 31 29 32 4 1 13 3 20 5 41 13 62 13 85 1 15 -8 31 -11 37 -8 6 3 8 3 4 -2
-4 -4 4 -22 17 -40 14 -17 25 -37 25 -44 0 -7 5 -9 10 -6 7 4 9 -2 4 -19 -9
-37 6 -54 22 -25 12 23 13 22 12 -19 0 -26 6 -50 16 -61 9 -10 16 -35 16 -56
0 -21 3 -35 8 -31 4 4 7 47 8 94 0 48 -1 79 -3 69 -3 -9 -9 -14 -15 -10 -8 4
-9 0 -4 -13 5 -10 11 -28 14 -39 5 -18 4 -19 -10 -4 -10 9 -18 39 -21 70 -2
30 -8 61 -11 70 -8 17 -39 22 -33 5 2 -6 10 -11 18 -11 15 0 14 -30 -3 -55 -7
-11 -8 -9 -4 10 3 14 -1 31 -10 41 -12 13 -13 22 -5 36 8 14 11 15 11 3 0 -9
6 -5 15 10 12 22 11 27 -2 42 -9 10 -20 15 -24 12 -5 -3 -9 0 -9 6 0 18 -67
41 -111 38 -21 -1 -39 -5 -39 -10z m78 -16 c-2 -9 7 -19 22 -23 l25 -7 -26 -1
c-15 -1 -32 6 -39 14 -9 11 -17 12 -30 5 -10 -6 -27 -10 -38 -10 -11 0 -31 -9
-46 -21 -14 -11 -26 -16 -26 -10 0 6 5 11 10 11 6 0 10 7 10 15 0 9 6 12 17 8
10 -4 14 -2 9 5 -3 6 -1 14 5 18 8 4 9 3 5 -4 -4 -7 -3 -12 3 -12 5 0 13 5 16
10 9 15 27 12 20 -2 -3 -7 0 -6 6 3 16 22 60 22 57 1z m62 -17 c7 -8 16 -13
20 -10 16 10 20 -14 5 -28 -8 -9 -15 -21 -15 -28 0 -9 -5 -8 -16 3 -9 9 -14
24 -11 32 11 27 9 31 -15 38 -22 6 -22 6 -2 7 12 1 27 -6 34 -14z"/>
<path d="M1644 1766 c-10 -8 -17 -16 -14 -19 3 -2 14 4 24 14 23 22 18 25 -10
5z"/>
<path d="M2017 1832 c-13 -3 -16 -9 -11 -24 4 -13 2 -18 -4 -14 -11 6 -26 -10
-27 -29 -1 -5 -6 -9 -11 -8 -6 1 -11 -5 -12 -13 -1 -7 -3 -21 -4 -29 -1 -8 -5
-12 -9 -9 -4 2 -10 0 -14 -6 -3 -5 -1 -10 5 -10 6 0 8 -4 5 -10 -3 -5 -4 -10
-1 -10 6 0 36 56 36 67 0 5 3 8 8 8 4 1 22 9 41 19 24 13 45 16 75 12 22 -3
49 -6 59 -7 9 0 15 -4 12 -8 -7 -13 22 -34 35 -26 6 4 9 13 7 19 -3 7 -1 19 4
27 5 8 9 10 10 4 0 -5 2 -18 4 -27 2 -10 -1 -18 -6 -18 -6 0 -8 -4 -4 -10 3
-5 13 -2 24 8 16 15 16 19 3 35 -32 37 -84 60 -141 63 -49 3 -54 1 -37 -11 13
-10 25 -11 43 -4 14 5 28 7 31 5 2 -3 -7 -8 -22 -12 -14 -3 -26 -10 -26 -15 0
-16 -57 -10 -71 8 -12 15 -12 16 6 9 11 -5 29 -10 40 -13 l20 -4 -20 12 c-11
7 -22 15 -25 19 -3 3 -13 4 -23 2z m148 -22 c3 -5 2 -10 -4 -10 -5 0 -13 5
-16 10 -3 6 -2 10 4 10 5 0 13 -4 16 -10z m8 -11 c10 8 17 9 22 1 3 -5 0 -10
-7 -10 -8 0 -9 -3 -3 -8 14 -10 17 -32 5 -32 -5 0 -10 6 -10 14 0 9 -16 17
-41 21 -27 5 -37 10 -29 15 7 5 21 3 31 -3 13 -8 21 -8 32 2z m-148 -20 c-4
-5 -15 -9 -26 -9 -26 0 -17 15 10 17 12 1 19 -2 16 -8z"/>
<path d="M2607 1819 c-21 -11 -35 -24 -32 -28 3 -5 -2 -12 -11 -15 -9 -3 -14
-15 -13 -28 3 -29 -9 -68 -22 -68 -6 0 -6 7 1 19 17 33 11 38 -10 6 -11 -17
-15 -32 -9 -35 6 -4 4 -17 -5 -36 l-16 -29 1 30 c0 17 -2 53 -5 80 -2 28 -2
44 0 37 3 -6 10 -10 15 -6 16 9 -1 24 -27 24 l-24 0 0 -235 0 -235 23 0 c18 0
19 2 7 10 -13 8 -12 10 3 10 9 0 17 -4 17 -10 0 -5 4 -10 8 -10 5 0 10 66 11
146 1 81 4 151 8 157 3 6 1 7 -5 3 -7 -4 -12 -2 -12 3 0 6 4 11 8 11 4 0 14
17 21 37 13 36 57 81 93 95 24 10 24 48 0 48 -24 0 -34 -10 -23 -24 6 -7 3
-16 -5 -24 -13 -12 -14 -10 -11 15 4 30 67 79 67 51 0 -10 3 -9 10 2 8 12 10
8 11 -15 1 -16 1 -33 0 -37 0 -5 6 -8 14 -8 11 0 15 11 15 40 0 39 -1 40 -32
40 -18 -1 -50 -10 -71 -21z m-25 -56 c-5 -10 -8 -25 -5 -33 2 -8 -2 -5 -9 8
-9 19 -9 25 3 33 20 12 21 11 11 -8z m-95 -154 c12 -16 23 -279 11 -279 -5 0
-9 5 -9 10 -2 11 -5 25 -9 38 -1 4 -6 -6 -10 -23 -4 -16 -7 69 -7 190 0 121 3
188 6 149 3 -39 11 -77 18 -85z"/>
<path d="M2472 1506 c-1 -55 2 -96 6 -90 5 5 6 50 2 99 l-7 90 -1 -99z"/>
<path d="M834 1814 c-10 -9 -13 -12 -5 -8 7 3 16 2 20 -4 4 -6 35 -14 69 -17
34 -3 73 -10 86 -15 13 -4 32 -7 42 -5 11 2 21 4 24 4 3 1 -2 6 -10 11 -8 5
-24 7 -35 4 -16 -4 -17 -3 -4 5 17 11 59 4 59 -10 0 -4 -5 -11 -10 -14 -6 -4
-7 -12 -3 -18 4 -7 -2 -5 -13 3 -18 14 -18 14 -5 -3 8 -10 21 -15 28 -13 11 4
13 0 8 -14 -5 -17 -2 -20 25 -20 26 0 31 3 26 16 -6 15 -4 15 10 3 32 -26 -11
43 -45 74 -32 28 -47 35 -36 17 4 -7 -2 -9 -19 -4 -16 4 -32 1 -41 -6 -10 -8
-27 -10 -52 -4 -21 4 -46 7 -56 6 -12 -1 -16 2 -11 11 5 7 0 6 -11 -3 -10 -8
-16 -10 -12 -3 12 19 -8 24 -29 7z m288 -77 c-7 -8 -10 -16 -7 -19 3 -2 -2 -5
-10 -5 -8 0 -12 4 -9 9 3 5 1 15 -6 23 -8 9 -8 15 0 20 6 3 7 12 4 18 -4 7 4
2 16 -10 18 -17 21 -25 12 -36z"/>
<path d="M1096 1761 c-3 -5 1 -11 9 -14 9 -4 12 -1 8 9 -6 16 -10 17 -17 5z"/>
<path d="M1303 1815 c-3 -9 -3 -18 0 -22 10 -10 37 6 37 22 0 20 -29 20 -37 0z"/>
<path d="M1352 1818 c4 -8 -2 -21 -12 -28 -19 -13 -18 -36 1 -25 5 4 9 -9 9
-27 0 -23 -3 -29 -9 -19 -7 11 -10 10 -14 -5 -3 -12 -5 -7 -6 13 0 17 -5 34
-9 37 -5 3 -10 -141 -11 -319 l-2 -325 40 0 41 0 0 85 c0 47 -3 85 -8 85 -4 0
-6 -20 -4 -45 3 -27 0 -45 -6 -45 -6 0 -13 -17 -15 -37 -2 -21 -4 26 -5 104
-1 98 2 144 10 149 7 5 8 3 3 -6 -5 -9 -4 -11 3 -6 7 4 17 4 24 0 8 -5 6 -10
-8 -15 -16 -6 -16 -8 -2 -8 9 -1 21 -9 27 -18 9 -16 11 -16 20 7 8 20 6 28
-11 43 -11 9 -17 17 -14 17 4 0 1 10 -5 23 -7 13 -12 55 -11 102 1 44 -2 86
-6 93 -5 8 -8 1 -8 -20 0 -18 -3 -59 -7 -91 -5 -39 -4 -56 3 -52 5 3 10 -1 10
-9 0 -23 -4 -31 -13 -28 -5 1 -6 -2 -2 -8 3 -6 11 -8 16 -5 5 4 9 1 9 -5 0 -7
-7 -9 -16 -6 -9 3 -18 6 -20 6 -2 0 -5 21 -6 48 -1 26 -5 -2 -8 -63 -5 -92 -6
-78 -6 85 -1 111 2 173 6 145 l7 -50 1 48 c1 31 6 46 14 45 7 -2 12 2 13 9 0
6 3 15 7 18 4 4 3 15 -2 25 -5 9 -7 30 -4 47 3 19 0 34 -7 39 -8 5 -10 2 -7
-8z m61 -434 c-5 -14 -18 -11 -18 4 0 4 -4 13 -9 20 -7 11 -4 12 12 3 13 -7
19 -17 15 -27z m-86 -216 c-2 -24 -4 -7 -4 37 0 44 2 63 4 43 2 -21 2 -57 0
-80z"/>
<path d="M2450 1805 c0 -21 5 -25 30 -25 26 0 29 3 28 25 -2 23 -18 37 -18 15
0 -5 -5 -10 -11 -10 -5 0 -7 5 -4 10 3 6 -1 10 -9 10 -10 0 -16 -9 -16 -25z
m43 -12 c-7 -2 -19 -2 -25 0 -7 3 -2 5 12 5 14 0 19 -2 13 -5z"/>
<path d="M2767 1823 c-11 -10 -8 -41 4 -49 6 -3 15 0 20 7 7 12 9 11 9 -1 0
-13 1 -13 10 0 15 24 12 32 -9 20 -26 -14 -31 -13 -31 6 0 11 8 14 28 12 21
-2 27 -8 25 -26 -2 -14 2 -22 10 -21 6 1 17 1 22 0 6 -1 10 -66 9 -174 0 -191
3 -196 15 -26 l9 114 -3 -134 c-2 -85 -8 -137 -15 -141 -17 -11 -1 -61 19 -58
10 2 15 -3 13 -13 -2 -12 5 -16 24 -16 17 0 22 2 13 8 -7 4 -17 5 -22 2 -5 -3
-4 4 2 16 13 23 26 27 37 9 4 -6 3 -8 -4 -4 -6 3 -13 2 -16 -3 -9 -13 15 -19
61 -16 22 2 46 -1 54 -6 9 -6 10 -9 2 -9 -7 0 -10 -7 -7 -15 11 -27 34 -17 34
15 0 30 -1 30 -45 26 -34 -3 -51 1 -72 17 -16 11 -30 22 -32 23 -2 2 -3 86 -2
187 2 162 0 185 -14 191 -10 3 -14 13 -11 23 7 24 -4 37 -33 41 -23 2 -24 1
-8 -16 16 -18 14 -32 -5 -32 -5 0 -6 5 -3 10 17 27 -64 57 -88 33z m131 -56
c15 -17 18 -345 4 -359 -6 -6 -8 -18 -5 -27 4 -13 3 -14 -5 -2 -7 10 -7 21 -1
32 12 23 12 349 0 349 -5 0 -7 -9 -4 -19 3 -11 0 -28 -6 -38 -9 -15 -11 -9 -9
30 2 49 8 56 26 34z m25 -382 c4 -8 2 -17 -3 -20 -6 -4 -10 3 -10 14 0 25 6
27 13 6z"/>
<path d="M1938 1787 c-33 -29 -35 -34 -22 -51 15 -21 24 -18 29 11 1 10 8 17
15 15 6 -1 8 2 5 8 -4 6 1 20 11 31 28 31 2 22 -38 -14z m-1 -31 c0 -8 -6 -12
-15 -9 -11 5 -11 7 0 14 7 5 13 9 14 9 0 0 1 -6 1 -14z"/>
<path d="M784 1768 c-10 -16 -17 -34 -15 -41 2 -7 5 -19 6 -27 4 -33 17 -60
26 -54 6 4 4 13 -6 24 -12 13 -13 19 -4 22 9 3 9 9 0 25 -18 34 -14 46 10 33
18 -10 19 -9 11 7 -8 15 -7 19 8 19 10 0 17 -3 14 -7 -2 -4 -1 -9 3 -12 5 -2
2 -2 -4 -1 -7 2 -12 -2 -10 -9 1 -7 -7 -11 -18 -9 -17 2 -18 1 -5 -10 16 -14
23 -61 7 -51 -6 3 -7 1 -3 -5 4 -7 14 -12 22 -12 8 0 12 -5 9 -10 -4 -6 -11
-8 -16 -5 -5 4 -9 2 -9 -3 0 -6 7 -12 15 -16 8 -3 15 -1 15 5 0 6 5 7 10 4 19
-11 10 -23 -15 -21 -13 2 -23 0 -20 -4 2 -4 -2 -7 -10 -7 -11 0 -12 4 -4 14
11 13 1 18 -24 14 -5 -1 -6 3 -2 9 3 5 -1 20 -9 32 -13 18 -16 19 -16 5 0 -9
5 -17 11 -17 5 0 7 -5 3 -12 -4 -6 1 -17 11 -25 11 -7 15 -13 11 -13 -5 0 -3
-7 4 -15 9 -10 17 -12 30 -5 18 9 30 4 30 -13 0 -5 -8 -6 -17 -3 -16 5 -15 4
1 -9 10 -8 22 -12 27 -10 4 3 20 0 36 -6 39 -15 82 -22 126 -21 20 1 37 -3 37
-8 0 -6 4 -10 9 -10 6 0 9 8 8 18 -1 16 -7 18 -39 12 -22 -4 -41 -3 -44 2 -4
5 -17 7 -29 4 -13 -3 -26 -2 -29 3 -3 5 0 9 7 8 31 -1 48 4 43 12 -3 5 8 11
25 13 16 3 33 0 36 -5 3 -6 2 -7 -4 -4 -6 4 -19 0 -29 -9 -18 -14 -18 -14 6
-12 14 2 28 7 31 12 4 4 16 3 28 -3 12 -7 26 -9 31 -6 6 3 10 -3 10 -14 0 -12
0 -24 1 -28 0 -4 -4 -9 -9 -11 -6 -2 -8 6 -5 17 3 13 1 21 -8 21 -7 0 -9 -3
-6 -7 4 -3 -1 -15 -10 -25 -13 -15 -14 -19 -3 -16 8 2 14 -3 15 -10 0 -7 7
-17 15 -22 11 -7 11 -10 2 -10 -7 0 -12 -8 -10 -18 3 -20 -36 -75 -46 -65 -3
3 -6 2 -6 -4 0 -6 -30 -11 -70 -12 -68 -2 -124 15 -142 43 -4 6 -8 9 -9 6 0
-3 -2 -15 -5 -28 -3 -16 0 -21 8 -16 7 4 8 3 4 -4 -10 -17 -20 -15 -47 8 l-24
20 30 -5 c17 -3 23 -2 15 2 -8 3 -22 15 -32 25 -12 14 -17 15 -21 6 -4 -8 -6
-7 -6 5 -1 23 26 22 39 -3 15 -28 28 -25 24 6 -3 29 -15 45 -21 28 -2 -6 -15
-9 -28 -6 -60 11 -9 -79 68 -122 39 -23 56 -27 88 -22 24 4 39 2 39 -4 0 -5 5
-10 11 -10 5 0 7 5 4 10 -4 7 8 8 34 4 24 -4 41 -3 41 3 0 5 -23 10 -52 12
-28 1 -55 4 -60 7 -4 3 -8 0 -8 -5 0 -6 -7 -11 -16 -11 -8 0 -12 5 -8 11 4 8
0 9 -15 4 -12 -4 -21 -2 -21 4 0 12 6 13 68 16 26 1 38 -1 30 -6 -9 -6 -7 -9
9 -9 12 0 24 4 27 9 3 4 23 11 44 15 22 3 45 13 52 21 13 15 30 12 30 -6 0 -6
-4 -7 -10 -4 -5 3 -10 1 -10 -4 0 -19 28 -12 44 11 23 33 3 53 -31 30 -21 -13
-25 -14 -21 -2 3 8 11 14 17 12 9 -2 9 3 0 19 -8 15 -8 19 0 15 7 -4 11 1 11
13 0 10 -6 21 -12 24 -9 3 -5 12 12 26 24 22 24 22 32 1 4 -11 10 -20 12 -20
10 0 -7 35 -28 58 -25 28 -71 54 -79 45 -4 -3 -13 0 -22 7 -8 7 -25 10 -39 6
-15 -4 -26 -1 -29 7 -4 9 -8 8 -16 -3 -6 -8 -11 -10 -11 -4 0 7 -7 15 -16 18
-21 8 -65 -4 -58 -15 3 -5 0 -9 -5 -9 -17 0 -13 18 7 29 10 6 12 11 4 11 -7 0
-24 12 -36 27 -18 21 -22 33 -15 50 5 13 5 23 1 23 -4 0 1 5 11 11 25 15 21
36 -11 47 -25 9 -30 7 -48 -20z m152 -173 c8 -8 22 -11 32 -8 14 5 15 3 5 -7
-15 -16 -47 -21 -87 -13 -21 4 -25 7 -15 14 8 5 23 6 34 4 11 -3 14 -2 8 1 -7
3 -13 10 -13 15 0 14 20 11 36 -6z m214 -215 c0 -5 -4 -10 -10 -10 -5 0 -10 5
-10 10 0 6 5 10 10 10 6 0 10 -4 10 -10z m-250 -37 c0 -3 -7 -3 -15 1 -8 3
-15 1 -15 -3 0 -5 -7 -11 -15 -15 -19 -7 -19 -1 0 18 14 13 45 13 45 -1z"/>
<path d="M2662 1780 c0 -14 2 -19 5 -12 2 6 2 18 0 25 -3 6 -5 1 -5 -13z"/>
<path d="M1690 1729 c0 -5 5 -7 10 -4 6 3 11 -4 11 -17 2 -46 4 -51 18 -56 10
-3 12 0 7 14 -4 11 -9 27 -11 37 -2 9 -7 22 -10 27 -8 13 -25 13 -25 -1z"/>
<path d="M1876 1711 c-14 -27 -15 -31 -2 -31 10 0 13 -6 9 -17 -3 -10 -3 -15
2 -11 4 4 16 3 26 -2 12 -7 20 -7 24 0 3 5 1 10 -4 10 -6 0 -11 8 -12 18 0 14
-2 14 -9 -3 -8 -19 -9 -19 -9 2 -1 12 5 23 12 26 9 3 8 9 -5 22 -15 17 -17 16
-32 -14z m17 -6 c-3 -9 -8 -14 -10 -11 -3 3 -2 9 2 15 9 16 15 13 8 -4z"/>
<path d="M2254 1725 c6 -17 -2 -45 -13 -45 -4 0 -8 7 -8 15 0 8 4 12 9 9 4 -3
8 0 8 5 0 15 -13 14 -29 -1 -10 -9 -12 -9 -7 -1 3 6 2 14 -4 18 -17 11 -11
-24 8 -43 10 -10 16 -24 14 -30 -2 -7 1 -12 7 -12 6 0 11 7 11 15 0 8 5 15 11
15 5 0 7 5 3 12 -4 6 -3 8 4 4 14 -9 21 15 10 37 -11 21 -32 23 -24 2z"/>
<path d="M2496 1715 c-9 -26 -7 -32 5 -12 6 10 9 21 6 23 -2 3 -7 -2 -11 -11z"/>
<path d="M750 1710 c0 -5 5 -10 11 -10 5 0 7 5 4 10 -3 6 -8 10 -11 10 -2 0
-4 -4 -4 -10z"/>
<path d="M2277 1666 c-9 -14 -17 -30 -17 -35 0 -6 -7 -8 -15 -5 -13 5 -15 -7
-15 -78 0 -55 -5 -90 -14 -103 -7 -11 -14 -24 -14 -28 -1 -15 -74 -67 -93 -67
-10 0 -21 -4 -24 -10 -3 -5 -12 -10 -18 -10 -7 0 -6 4 3 11 13 9 13 10 -1 6
-9 -3 -30 3 -47 13 -16 10 -32 16 -35 13 -8 -8 -47 7 -47 18 0 6 8 6 20 -1 16
-9 18 -8 14 5 -4 8 -11 15 -18 15 -6 0 -12 14 -13 32 -1 17 -7 36 -13 42 -8 8
-9 3 -4 -19 4 -20 3 -27 -3 -20 -6 6 -13 26 -16 45 -3 19 -3 29 0 22 11 -26
23 2 23 54 0 51 -1 54 -19 45 -18 -10 -22 -29 -20 -96 0 -11 1 -46 1 -77 1
-32 5 -58 10 -58 4 0 7 -5 6 -12 -2 -6 8 -17 22 -25 14 -7 21 -13 15 -13 -5
-1 6 -10 25 -20 22 -12 45 -17 63 -14 17 4 27 1 27 -6 0 -10 3 -10 15 0 8 7
25 10 40 6 15 -4 25 -2 25 4 0 6 6 10 13 9 6 -1 17 -1 23 0 18 2 74 54 74 69
0 7 4 11 9 8 14 -9 21 20 8 34 -9 10 -8 12 5 7 12 -4 19 3 27 25 6 17 8 34 5
40 -3 5 0 15 6 24 13 15 7 113 -9 156 -7 19 -8 19 -24 -6z m25 -71 c3 -56 -1
-73 -19 -93 -7 -7 -13 -23 -12 -35 0 -21 1 -21 10 -2 l9 20 -3 -20 c-1 -11 -6
-18 -11 -17 -16 6 -25 -22 -13 -37 7 -8 8 -12 2 -9 -12 7 -36 -17 -27 -28 4
-4 2 -4 -5 0 -8 4 -18 -5 -28 -24 -8 -16 -19 -30 -23 -31 -4 0 -23 -2 -42 -4
-19 -1 -27 -1 -17 2 9 2 15 9 11 14 -9 15 39 49 60 43 12 -4 16 -2 11 5 -3 7
7 24 24 40 30 28 40 51 23 51 -5 0 -8 31 -8 69 1 38 4 67 7 65 4 -2 10 3 13
12 3 8 11 12 17 8 8 -4 9 1 4 17 -5 17 -4 21 4 14 6 -6 12 -33 13 -60z m-76
-163 c-17 -16 -18 -16 -5 5 7 12 15 20 18 17 3 -2 -3 -12 -13 -22z m-299 1 c6
4 9 -5 7 -19 -3 -30 -11 -41 -21 -29 -5 4 -2 10 4 12 10 4 9 8 -2 20 -8 8 -15
20 -15 26 0 8 3 7 9 -2 5 -7 13 -11 18 -8z m43 -73 c9 -6 17 -5 22 3 5 8 8 6
8 -7 0 -12 5 -16 16 -12 8 3 13 2 10 -3 -3 -5 10 -12 30 -16 45 -8 38 -17 -16
-19 -23 -1 -35 1 -28 6 13 8 5 11 -23 9 -9 -1 -22 5 -29 14 -7 8 -20 15 -29
15 -14 0 -14 2 -1 10 19 12 21 12 40 0z"/>
<path d="M2272 1560 c0 -19 2 -27 5 -17 2 9 2 25 0 35 -3 9 -5 1 -5 -18z"/>
<path d="M2250 1511 c0 -6 5 -13 10 -16 6 -3 10 1 10 9 0 9 -4 16 -10 16 -5 0
-10 -4 -10 -9z"/>
<path d="M2170 1366 c0 -2 7 -7 16 -10 8 -3 12 -2 9 4 -6 10 -25 14 -25 6z"/>
<path d="M2140 1336 c0 -2 7 -7 16 -10 8 -3 12 -2 9 4 -6 10 -25 14 -25 6z"/>
<path d="M1962 1345 c9 -10 21 -16 28 -13 7 2 -1 10 -16 17 -27 12 -28 11 -12
-4z"/>
<path d="M1856 1661 c-4 -5 -4 -25 -2 -45 3 -19 0 -38 -5 -42 -6 -3 -7 -13 -4
-23 4 -9 8 -34 10 -56 2 -35 20 -95 27 -95 2 0 2 21 0 47 -6 101 -3 145 13
169 8 13 11 24 6 24 -5 0 -12 -6 -14 -12 -4 -10 -6 -10 -6 0 -1 7 -6 10 -12 6
-8 -4 -9 0 -4 15 6 21 1 29 -9 12z m19 -51 c3 -5 1 -10 -4 -10 -6 0 -11 5 -11
10 0 6 2 10 4 10 3 0 8 -4 11 -10z m2 -152 c-3 -8 -6 -5 -6 6 -1 11 2 17 5 13
3 -3 4 -12 1 -19z"/>
<path d="M1670 1554 c0 -21 4 -33 10 -29 6 3 10 19 10 36 0 16 -4 29 -10 29
-5 0 -10 -16 -10 -36z"/>
<path d="M1697 1530 c-3 -12 -1 -35 4 -52 6 -23 5 -34 -3 -39 -18 -12 -28 -1
-27 29 l1 27 8 -25 c7 -21 8 -21 9 -5 0 11 -3 27 -9 35 -10 16 -12 12 -24 -42
-4 -16 -7 -31 -8 -35 -1 -5 -19 -22 -40 -39 -20 -18 -34 -35 -30 -39 12 -12
-92 7 -115 21 -29 18 -30 18 -36 -7 -3 -12 0 -22 9 -26 8 -3 11 -9 8 -14 -5
-9 9 -13 35 -10 7 2 10 -2 7 -7 -8 -13 106 -13 122 0 6 6 12 7 12 4 0 -4 10
-2 21 5 17 9 19 13 8 19 -9 6 -6 10 14 15 34 9 85 85 57 85 -5 0 -10 -9 -10
-19 0 -11 -4 -22 -9 -25 -5 -3 -8 5 -7 19 0 14 8 27 16 30 12 4 15 15 12 40
-2 19 -8 32 -13 29 -6 -3 -7 5 -3 20 3 14 4 26 1 26 -2 0 -7 -9 -10 -20z m-16
-133 c-5 -5 -7 -17 -4 -26 4 -13 2 -13 -10 2 -10 12 -17 14 -22 8 -3 -6 -14
-11 -23 -10 -13 0 -13 2 -3 6 20 8 51 36 51 46 0 4 -5 5 -12 1 -7 -5 -8 -3 -3
6 6 10 11 9 22 -5 8 -12 9 -23 4 -28z m-215 -50 c8 3 14 0 14 -6 0 -12 -11
-14 -34 -5 -9 3 -12 12 -8 22 6 16 7 16 10 0 2 -10 9 -15 18 -11z m194 14 c0
-12 -29 -22 -43 -15 -7 3 -4 -1 6 -9 10 -8 15 -17 10 -20 -4 -3 -17 7 -27 21
-11 14 -15 23 -10 20 5 -3 18 -2 29 3 27 10 35 11 35 0z m-62 -36 c28 -10 -1
-24 -46 -22 -35 2 -48 6 -50 19 -3 14 4 16 40 12 24 -3 49 -7 56 -9z"/>
<path d="M1515 1320 c-3 -5 -2 -10 4 -10 5 0 13 5 16 10 3 6 2 10 -4 10 -5 0
-13 -4 -16 -10z"/>
<path d="M1568 1313 c6 -2 18 -2 25 0 6 3 1 5 -13 5 -14 0 -19 -2 -12 -5z"/>
<path d="M215 1479 c-4 -6 -14 -8 -24 -5 -14 5 -13 4 2 -8 9 -7 17 -18 17 -25
0 -6 6 -11 13 -12 6 0 3 -4 -8 -9 -11 -5 -15 -9 -8 -9 7 -1 10 -8 6 -18 -5
-11 -3 -14 6 -8 10 6 11 2 6 -15 -6 -19 -4 -21 13 -16 14 5 21 1 25 -14 5 -21
-8 -29 -15 -8 -3 9 -6 9 -12 0 -4 -7 -2 -12 4 -12 6 0 8 -5 4 -12 -5 -7 -3 -8
6 -3 8 5 11 3 8 -5 -7 -22 71 -200 87 -200 6 0 11 -9 12 -19 2 -21 51 -104 64
-109 5 -2 9 -9 9 -16 0 -7 11 -25 25 -40 13 -14 21 -26 17 -26 -4 0 1 -7 11
-15 11 -7 26 -11 35 -8 10 4 13 2 8 -5 -3 -6 4 -18 16 -26 12 -9 17 -16 11
-16 -7 0 -15 5 -18 10 -3 6 -11 10 -17 10 -6 0 -3 -9 7 -20 14 -15 22 -17 37
-9 12 6 18 7 14 1 -3 -5 3 -19 14 -32 10 -12 16 -28 13 -36 -5 -13 8 -19 32
-14 6 1 5 -4 -2 -11 -9 -9 -9 -15 2 -25 7 -8 19 -14 25 -14 6 0 9 -4 5 -9 -3
-5 8 -19 24 -30 16 -11 46 -37 67 -57 83 -77 154 -131 154 -118 0 5 5 1 11 -8
5 -10 17 -18 24 -18 8 0 15 -4 15 -10 0 -5 5 -10 11 -10 6 0 18 -7 27 -16 14
-15 17 -15 30 2 14 18 14 18 10 -2 -7 -26 27 -52 36 -28 3 8 11 12 16 9 8 -5
8 -11 0 -20 -8 -10 -4 -17 19 -28 26 -13 30 -13 35 0 4 8 4 18 1 23 -8 13 -98
63 -112 63 -7 0 -13 4 -13 9 0 4 -6 8 -14 8 -8 0 -17 7 -20 15 -4 13 -10 14
-26 5 -16 -9 -21 -8 -25 5 -3 8 -7 22 -10 30 -2 9 -11 18 -20 21 -8 3 -34 24
-57 45 -24 21 -46 39 -50 39 -4 0 -16 9 -27 21 -13 14 -26 19 -39 15 -11 -4
-23 -2 -27 3 -3 6 0 8 8 5 8 -3 18 0 23 7 5 9 -1 11 -24 6 -31 -6 -52 6 -32
18 5 3 10 2 10 -4 0 -6 7 -8 16 -4 13 5 12 9 -7 29 -22 23 -46 33 -34 15 3 -5
0 -13 -6 -17 -8 -5 -10 1 -7 20 5 23 3 27 -13 23 -12 -3 -19 0 -19 10 0 8 5
11 13 7 6 -4 2 4 -10 17 -49 53 -92 107 -132 167 -38 55 -55 68 -85 63 -5 -1
-6 5 -3 14 4 8 2 15 -4 15 -6 0 -7 5 -3 11 5 8 13 4 26 -12 11 -13 16 -17 12
-9 -12 25 -36 50 -48 50 -6 0 -4 -5 4 -11 12 -8 12 -10 1 -7 -8 2 -15 12 -17
22 -2 13 2 16 14 12 15 -5 15 -4 2 7 -8 6 -16 19 -18 27 -5 21 -20 35 -29 26
-5 -4 1 -14 11 -22 11 -8 15 -14 9 -14 -6 0 -16 7 -23 15 -14 17 -21 67 -8 59
5 -3 7 -13 3 -23 -5 -12 -4 -13 6 -4 18 18 -8 48 -27 32 -11 -9 -14 -8 -14 5
0 9 6 16 14 16 9 0 12 7 9 20 -4 15 -11 19 -24 15 -11 -4 -19 -2 -19 4 0 6 7
11 15 11 9 0 12 6 9 15 -4 8 -10 15 -16 15 -5 0 -7 -4 -3 -9 3 -5 0 -13 -6
-17 -8 -4 -9 -3 -5 4 4 7 3 12 -3 12 -7 0 -7 8 -1 26 10 26 -2 64 -20 64 -6 0
-10 5 -10 11 0 5 5 7 12 3 7 -4 8 -3 4 5 -4 6 -13 8 -19 4 -9 -5 -9 -3 0 8 10
12 9 20 -2 36 -8 12 -12 28 -9 37 7 18 -1 22 -11 5z m86 -262 c-10 -9 -11 -8
-5 6 3 10 9 15 12 12 3 -3 0 -11 -7 -18z m160 -261 c5 3 9 -4 9 -16 0 -12 5
-18 10 -15 6 3 10 2 10 -4 0 -5 7 -16 15 -25 9 -9 11 -17 5 -21 -5 -3 -10 -2
-10 3 0 5 -13 23 -30 40 -16 18 -30 37 -29 44 0 10 2 11 6 0 2 -6 9 -10 14 -6z
m233 -264 c3 -5 -1 -9 -9 -9 -8 0 -15 4 -15 9 0 4 4 8 9 8 6 0 12 -4 15 -8z
m66 -66 c0 -11 -19 -15 -25 -6 -3 5 1 10 9 10 9 0 16 -2 16 -4z m80 -73 c0 -2
-13 4 -30 14 -16 9 -30 21 -30 25 0 5 14 -1 30 -14 17 -12 30 -23 30 -25z m16
-18 c-3 -8 0 -15 6 -15 6 0 9 -3 5 -6 -10 -11 -26 6 -20 21 3 8 7 15 10 15 3
0 3 -7 -1 -15z m61 -41 c2 -6 -3 -11 -11 -11 -8 0 -12 5 -9 10 4 6 -1 8 -11 4
-11 -4 -15 -3 -11 4 8 12 37 8 42 -7z m103 -85 c0 -14 -5 -11 -31 17 l-24 27
28 -18 c15 -9 27 -21 27 -26z m95 -49 c-3 -5 -12 -10 -18 -10 -7 0 -6 4 3 10
19 12 23 12 15 0z"/>
<path d="M1148 1448 c-10 -12 -18 -27 -18 -33 0 -5 4 -4 9 3 7 11 9 11 14 -2
9 -23 22 -20 24 6 2 19 0 20 -8 8 -8 -11 -9 -8 -5 13 8 33 6 33 -16 5z"/>
<path d="M3738 1415 c-14 -22 -46 -115 -37 -109 16 10 9 -8 -8 -23 -17 -14
-17 -14 0 -9 9 3 17 1 17 -4 0 -6 -8 -10 -18 -10 -13 0 -31 -27 -62 -92 -25
-51 -56 -108 -69 -125 -13 -18 -19 -33 -15 -33 11 0 42 20 32 20 -11 0 33 80
44 80 5 0 8 6 5 13 -5 14 32 71 41 63 8 -9 33 15 26 25 -10 16 -26 9 -19 -8 5
-14 3 -15 -6 -6 -16 16 -1 35 22 28 14 -5 19 -2 19 12 0 10 8 29 17 42 9 14
12 21 6 18 -6 -4 -13 2 -16 13 -5 20 8 29 15 10 2 -5 8 2 15 15 6 14 8 23 3
20 -9 -6 -23 25 -15 33 3 3 5 0 5 -6 0 -7 7 -12 15 -12 8 0 15 5 15 11 0 5 -4
8 -9 4 -5 -3 -11 5 -13 17 -2 13 -6 18 -10 13z"/>
<path d="M1367 1343 c-3 -16 -2 -32 2 -36 4 -4 8 8 9 28 2 42 -4 46 -11 8z"/>
<path d="M1060 1330 c0 -5 -8 -7 -17 -3 -12 4 -11 0 4 -11 18 -13 27 -14 43
-6 11 6 20 13 20 16 0 2 -9 0 -20 -6 -12 -6 -20 -7 -20 -1 0 5 6 12 13 14 7 3
5 6 -5 6 -10 1 -18 -3 -18 -9z"/>
<path d="M2942 1315 c-29 -16 -10 -25 42 -20 22 2 36 -1 36 -8 0 -7 5 -5 10 3
7 11 5 17 -8 21 -9 4 -21 3 -26 -2 -5 -5 -14 -3 -20 5 -9 10 -16 11 -34 1z"/>
<path d="M2557 1213 c-29 -33 -26 -104 5 -133 27 -25 49 -25 79 -2 16 14 20
24 15 38 -8 18 -9 18 -17 -4 -7 -18 -15 -23 -36 -20 -56 6 -57 110 -1 116 19
2 28 -2 33 -17 3 -12 11 -21 16 -21 13 0 11 34 -3 48 -18 18 -73 15 -91 -5z"/>
<path d="M2703 1204 c-25 -40 -20 -94 12 -121 34 -30 60 -29 90 2 27 26 33 72
14 108 -16 30 -28 37 -66 37 -24 0 -37 -7 -50 -26z m85 -6 c16 -16 16 -80 0
-96 -22 -22 -58 -14 -69 15 -23 62 28 122 69 81z"/>
<path d="M2870 1150 c0 -47 4 -80 10 -80 6 0 10 24 10 53 0 60 17 91 46 85 16
-3 19 -13 22 -71 2 -49 7 -67 17 -67 10 0 15 17 17 61 3 65 19 88 52 76 12 -5
16 -20 16 -72 0 -53 3 -65 16 -65 14 0 16 11 12 71 -4 73 -13 89 -54 89 -12 0
-27 -7 -35 -16 -11 -14 -13 -14 -21 0 -11 19 -59 21 -76 4 -9 -9 -12 -9 -12 0
0 7 -4 12 -10 12 -6 0 -10 -33 -10 -80z"/>
<path d="M3653 1161 c-3 -12 -10 -21 -15 -21 -5 0 -7 -4 -3 -9 3 -5 -6 -26
-20 -47 -14 -20 -25 -43 -25 -50 0 -7 -9 -18 -20 -24 -11 -6 -18 -15 -15 -21
4 -5 1 -9 -5 -9 -6 0 -9 -4 -5 -9 3 -5 0 -13 -6 -17 -8 -5 -9 -3 -4 6 6 9 4
11 -6 5 -12 -8 -12 -6 0 8 8 10 11 20 8 23 -3 3 -11 -5 -18 -18 -6 -12 -27
-42 -45 -64 -18 -23 -30 -44 -27 -48 4 -4 15 3 25 16 l17 23 -6 -22 c-3 -13
-9 -23 -14 -23 -4 0 -13 -9 -19 -20 -6 -11 -7 -20 -2 -20 11 0 92 107 92 120
0 6 5 10 10 10 6 0 10 5 10 11 0 6 11 25 25 41 14 16 23 34 19 39 -3 5 -1 9 4
9 12 0 53 76 45 84 -3 3 -1 6 6 6 7 0 10 4 7 9 -4 5 -1 11 6 13 9 3 9 6 -1 12
-8 5 -14 1 -18 -13z m-124 -228 c0 -11 -3 -13 -6 -5 -2 6 -10 9 -15 6 -7 -4
-8 -2 -4 4 11 18 26 14 25 -5z"/>
<path d="M2460 1085 c0 -8 9 -15 20 -15 11 0 20 7 20 15 0 8 -9 15 -20 15 -11
0 -20 -7 -20 -15z"/>
<path d="M3423 846 c-6 -8 -9 -17 -6 -20 4 -3 1 -6 -5 -6 -7 0 -12 -4 -12 -10
0 -5 8 -7 18 -4 16 5 16 5 -1 -6 -9 -6 -14 -16 -11 -22 4 -7 2 -8 -5 -4 -6 4
-9 12 -6 17 14 22 -8 3 -103 -90 -89 -87 -122 -124 -94 -107 5 3 9 -1 9 -9 0
-11 -5 -12 -21 -3 -16 9 -23 6 -40 -13 -12 -13 -34 -32 -49 -42 -16 -11 -26
-24 -23 -32 7 -20 -20 -38 -46 -32 -30 8 -70 -25 -62 -50 5 -17 5 -17 -9 0
-13 15 -16 16 -27 2 -7 -9 -15 -14 -17 -11 -5 4 -64 -32 -92 -56 -8 -6 -23
-13 -35 -14 -12 -1 -43 -12 -71 -25 -27 -12 -57 -23 -65 -25 -8 -2 -22 -12
-32 -24 -11 -13 -18 -16 -20 -8 -4 10 -10 10 -29 0 -22 -11 -22 -12 -2 -8 15
3 20 0 16 -10 -3 -8 -8 -12 -13 -9 -9 5 -60 -17 -60 -26 0 -4 18 -2 40 3 22 6
40 14 40 19 0 5 6 9 14 9 8 0 16 5 18 12 2 6 15 13 29 15 19 2 21 1 9 -8 -13
-9 -13 -10 0 -6 8 2 15 12 15 22 0 10 5 20 12 22 7 3 10 -4 7 -19 -2 -13 -2
-17 2 -10 3 6 17 12 30 12 13 0 24 5 24 11 0 6 -9 8 -21 4 -15 -5 -19 -4 -14
5 4 7 18 9 36 5 15 -4 35 -3 43 2 14 7 16 11 16 31 0 4 4 2 8 -5 6 -9 17 -7
42 9 19 12 38 22 42 23 4 0 16 8 28 17 11 10 20 15 20 12 0 -4 7 -1 15 6 9 7
14 19 11 26 -3 7 4 16 15 19 11 4 16 11 12 18 -5 8 -2 8 9 0 8 -7 19 -9 23 -5
5 4 4 0 -1 -8 -4 -8 11 0 34 18 23 19 42 38 42 43 0 5 8 9 19 9 10 0 26 11 35
25 17 27 10 33 -14 13 -8 -7 -6 -3 5 10 16 20 20 21 28 7 7 -13 12 -14 23 -4
8 6 14 18 14 26 0 8 4 12 9 8 5 -3 16 4 24 15 7 11 16 18 19 15 2 -2 22 13 43
35 22 22 34 40 28 40 -6 0 -14 -6 -16 -12 -4 -10 -6 -10 -6 0 -1 7 -6 10 -13
6 -7 -4 -8 -3 -4 5 4 6 12 9 17 6 5 -4 9 2 9 12 0 14 2 15 9 5 7 -11 9 -10 15
3 3 9 10 14 14 11 5 -3 26 12 46 33 23 24 33 40 25 43 -9 3 -9 9 0 26 13 24 3
29 -16 8z m-33 -91 c-7 -9 -15 -13 -18 -10 -3 3 -10 1 -17 -3 -6 -4 -2 1 8 11
24 21 44 23 27 2z m-70 -80 c0 -1 -12 -12 -27 -26 -15 -13 -21 -16 -14 -6 8 9
11 20 8 24 -4 3 -14 -8 -24 -26 -16 -27 -33 -41 -33 -26 0 15 52 61 70 61 11
0 20 -1 20 -1z m-216 -170 c-6 -16 -24 -21 -24 -7 0 11 11 22 21 22 5 0 6 -7
3 -15z m-148 -107 c4 -7 3 -10 -1 -5 -5 4 -19 -3 -32 -15 -13 -12 -23 -18 -23
-14 0 4 -9 2 -20 -4 -14 -7 -20 -7 -20 0 0 5 7 10 15 10 8 0 15 5 15 11 0 6 7
8 15 5 9 -3 18 1 21 9 7 18 20 19 30 3z m-111 -57 c-3 -6 -11 -11 -16 -11 -5
0 -4 6 3 14 14 16 24 13 13 -3z m-53 -18 c-6 -2 -10 -8 -8 -12 3 -4 -1 -8 -9
-8 -8 0 -15 4 -15 8 0 8 19 17 35 17 6 0 4 -2 -3 -5z"/>
<path d="M550 792 c0 -10 33 -42 44 -42 9 0 -27 49 -36 50 -5 0 -8 -4 -8 -8z"/>
<path d="M3040 485 c-10 -12 -10 -15 4 -15 9 0 16 7 16 15 0 8 -2 15 -4 15 -2
0 -9 -7 -16 -15z"/>
<path d="M3000 430 c-8 -5 -11 -12 -7 -16 4 -4 13 -2 19 4 15 15 7 24 -12 12z"/>
<path d="M1159 354 c0 -5 -2 -17 -4 -26 -4 -23 46 -43 73 -29 15 8 23 7 30 -2
6 -7 23 -14 37 -15 14 -1 33 -9 42 -18 9 -8 22 -13 29 -10 8 3 14 1 14 -4 0
-15 -23 -12 -48 6 -12 8 -22 12 -22 8 0 -3 -7 0 -17 7 -9 8 -17 13 -17 11 -1
-2 -9 0 -19 4 -10 3 -20 4 -23 1 -6 -6 76 -44 115 -54 14 -3 32 -10 39 -16 10
-8 16 -7 23 4 5 8 8 17 6 22 -1 4 -50 27 -109 51 -66 27 -104 38 -101 30 3 -8
10 -11 16 -7 6 4 7 1 2 -6 -5 -9 -11 -9 -17 -3 -6 6 -18 8 -27 4 -13 -5 -14
-3 -3 10 10 12 9 18 -3 28 -8 7 -15 9 -16 4z"/>
<path d="M1425 233 c-8 -23 2 -29 69 -47 40 -10 66 -12 85 -5 24 8 25 8 7 -5
-18 -15 -18 -15 0 -14 11 0 28 -3 38 -7 14 -6 17 -5 12 3 -4 7 -2 12 3 12 6 0
11 -4 11 -9 0 -19 39 -22 64 -6 14 9 30 14 36 10 18 -11 11 -23 -12 -18 -22 4
-22 4 -3 -8 25 -16 400 -25 409 -10 4 5 25 8 47 6 30 -3 48 1 69 17 19 14 34
18 47 13 17 -8 30 -9 71 -6 9 0 29 12 44 26 21 19 27 21 32 10 8 -22 37 -18
43 5 3 11 14 20 24 20 11 0 19 4 19 9 0 10 -25 9 -36 -1 -3 -4 -12 -4 -20 -1
-8 3 -14 0 -14 -6 0 -6 -8 -10 -17 -9 -39 3 -68 -2 -56 -10 9 -5 1 -12 -23
-21 -29 -11 -41 -11 -60 -1 -19 11 -25 10 -39 -4 -9 -9 -24 -16 -33 -16 -15 0
-15 2 -2 11 12 8 10 9 -10 5 -14 -3 -47 -6 -73 -6 -27 0 -46 -4 -43 -9 4 -5
-6 -8 -21 -6 -16 2 -98 7 -183 11 -186 8 -190 8 -212 18 -9 4 -21 5 -26 2 -4
-3 -26 1 -48 9 -22 7 -53 15 -69 18 -17 2 -37 6 -45 10 -63 23 -79 25 -85 10z
m55 -23 c0 -5 -7 -7 -15 -4 -8 4 -12 10 -9 15 6 11 24 2 24 -11z m1010 -10 c0
-5 -4 -10 -10 -10 -5 0 -10 5 -10 10 0 6 5 10 10 10 6 0 10 -4 10 -10z m-935
-10 c3 -5 2 -10 -4 -10 -5 0 -13 5 -16 10 -3 6 -2 10 4 10 5 0 13 -4 16 -10z
m140 -32 c-9 -6 -19 -7 -22 -4 -4 3 -1 6 6 6 7 0 9 4 6 10 -4 6 1 7 11 3 15
-6 15 -7 -1 -15z m540 -16 c-3 -3 -11 0 -18 7 -9 10 -8 11 6 5 10 -3 15 -9 12
-12z m-180 -6 c17 -1 -24 -3 -90 -4 -66 -1 -125 2 -132 6 -10 6 153 5 222 -2z"/>
<path d="M2340 190 c-13 -8 -13 -10 2 -10 9 0 20 5 23 10 8 13 -5 13 -25 0z"/>
<path d="M2280 150 c-13 -8 -13 -10 2 -10 9 0 20 5 23 10 8 13 -5 13 -25 0z"/>
</g>
</svg>
