<?xml version="1.0" standalone="no"?>
<!DOCTYPE svg PUBLIC "-//W3C//DTD SVG 20010904//EN"
 "http://www.w3.org/TR/2001/REC-SVG-20010904/DTD/svg10.dtd">
<svg version="1.0" xmlns="http://www.w3.org/2000/svg"
 width="2000.000000pt" height="2000.000000pt" viewBox="0 0 2000.000000 2000.000000"
 preserveAspectRatio="xMidYMid meet">

<g transform="translate(0.000000,2000.000000) scale(0.100000,-0.100000)"
fill="#000000" stroke="none">
<path d="M9945 19714 c-407 -21 -717 -49 -1035 -94 -2204 -315 -4226 -1373
-5742 -3004 -2626 -2826 -3296 -6934 -1703 -10441 390 -860 922 -1674 1573
-2410 253 -286 716 -733 1032 -996 1486 -1238 3327 -2009 5250 -2198 383 -38
541 -45 985 -45 545 0 914 25 1395 94 1790 257 3448 994 4840 2149 390 324
830 758 1166 1151 2002 2340 2751 5485 2018 8480 -329 1344 -957 2608 -1842
3709 -368 457 -886 983 -1347 1366 -788 656 -1703 1197 -2655 1570 -948 371
-1881 579 -2945 655 -149 11 -857 21 -990 14z m1065 -748 c476 -40 889 -104
1319 -202 2471 -564 4596 -2157 5828 -4369 589 -1057 951 -2220 1068 -3435 37
-393 48 -977 25 -1355 -94 -1531 -559 -2957 -1383 -4245 -553 -865 -1307
-1676 -2142 -2304 -1276 -961 -2758 -1555 -4350 -1745 -392 -47 -557 -55
-1070 -55 -513 0 -678 8 -1070 55 -1854 221 -3548 987 -4950 2238 -176 157
-532 513 -689 690 -1345 1515 -2113 3358 -2236 5366 -14 232 -14 798 0 1030
41 677 152 1316 335 1945 372 1274 1011 2422 1914 3435 260 292 672 685 996
950 1420 1162 3171 1862 5000 1999 312 24 305 24 780 21 290 -2 503 -9 625
-19z"/>
<path d="M12012 14109 c-295 -28 -618 -137 -869 -292 -499 -310 -830 -798
-938 -1384 -35 -188 -30 -524 10 -717 8 -38 13 -71 11 -74 -8 -7 -297 19 -486
44 -1088 145 -2122 601 -2965 1310 -232 194 -510 470 -677 672 -34 39 -65 72
-69 72 -13 0 -111 -201 -153 -312 -43 -117 -89 -297 -107 -428 -17 -121 -17
-406 0 -530 74 -535 363 -1026 790 -1345 50 -38 91 -69 91 -71 0 -4 -109 6
-224 22 -200 28 -405 90 -601 184 -48 23 -89 40 -91 37 -6 -6 15 -286 27 -352
101 -556 420 -1040 889 -1348 185 -121 425 -226 623 -273 42 -9 77 -21 77 -24
0 -11 -199 -48 -325 -61 -125 -13 -377 -6 -497 14 -43 8 -78 12 -78 10 0 -2
15 -43 34 -91 230 -597 726 -1051 1338 -1226 134 -39 292 -67 411 -73 59 -3
107 -10 107 -14 0 -10 -136 -108 -280 -201 -535 -346 -1128 -557 -1785 -635
-168 -20 -694 -24 -842 -7 -45 6 -80 7 -77 3 7 -12 230 -142 369 -216 706
-375 1434 -588 2275 -665 202 -18 783 -15 1010 6 946 86 1764 350 2521 813
624 381 1192 914 1633 1533 516 724 867 1569 1016 2445 56 332 80 612 80 957
l0 237 95 72 c149 112 298 245 445 395 166 170 235 251 360 419 124 167 120
160 73 139 -268 -115 -626 -219 -947 -274 -182 -31 -184 -30 -80 41 351 240
631 595 768 977 l26 72 -83 -46 c-337 -188 -741 -340 -1126 -424 l-85 -19 -86
82 c-421 401 -1017 603 -1608 546z"/>
</g>
</svg>
